<svg xmlns="http://www.w3.org/2000/svg" viewBox="0 0 200 200">
  <circle cx="100" cy="100" r="92" fill="#fcfcfc" stroke="#efefef" stroke-width="3"/>
  <polygon points="100,72 122,88 113,114 87,114 78,88" fill="#f7f7f7" stroke="#eeeeee" stroke-width="2"/>
  <g stroke="#f0f0f0" stroke-width="2" fill="none">
    <line x1="100" y1="72" x2="100" y2="16"/>
    <line x1="122" y1="88" x2="170" y2="66"/>
    <line x1="113" y1="114" x2="146" y2="160"/>
    <line x1="87" y1="114" x2="54" y2="160"/>
    <line x1="78" y1="88" x2="30" y2="66"/>
  </g>
  <g fill="#f7f7f7" stroke="#eeeeee" stroke-width="2">
    <polygon points="100,16 84,40 100,52 116,40"/>
    <polygon points="170,66 150,80 158,100 178,92"/>
    <polygon points="146,160 128,150 118,166 132,182"/>
    <polygon points="54,160 72,150 82,166 68,182"/>
    <polygon points="30,66 50,80 42,100 22,92"/>
  </g>
</svg>
